<svg xmlns="http://www.w3.org/2000/svg" viewBox="0 0 900 66" width="100%" height="100%">
  <defs>
    <linearGradient id="hdrGrad_SENSE" x1="0%" y1="0%" x2="100%" y2="0%">
      <stop offset="0%" stop-color="#0a0f1d" />
      <stop offset="70%" stop-color="#070a14" />
      <stop offset="100%" stop-color="#04060b" />
    </linearGradient>
  </defs>

  <rect x="0" y="0" width="900" height="66" rx="8" fill="url(#hdrGrad_SENSE)" stroke="#1a2538" stroke-width="1.2" />
  <path d="M 0 0 L 8 0 L 0 8 Z" fill="#00F2FE" />
  <rect x="0" y="0" width="5" height="66" fill="#00F2FE" />
  <path d="M 885 8 L 892 8 L 892 15" stroke="#00F2FE" stroke-width="1.8" fill="none" />
  <path d="M 892 51 L 892 58 L 885 58" stroke="#00F2FE" stroke-width="1.8" fill="none" />

  <g transform="translate(24, 15)">
    <rect width="40" height="36" rx="5" fill="#0f172a" stroke="#00F2FE" stroke-width="1.2" />
    <text x="20" y="24" text-anchor="middle" font-family="'SF Mono', 'Fira Code', monospace" font-size="15" font-weight="900" fill="#00F2FE">02</text>
  </g>

  <g transform="translate(80, 0)">
    <text x="0" y="24" font-family="'SF Mono', 'Fira Code', monospace" font-size="11" font-weight="700" fill="#00F2FE" letter-spacing="2px">// SPIDER-SENSE &#x2022; <tspan fill="#e2e8f0">THREAT &amp; LEARNING RADAR</tspan></text>
    <text x="0" y="47" font-family="'SF Mono', 'Fira Code', monospace" font-size="9.5" fill="#64748b" letter-spacing="1px">DIAGNOSTICS // ACTIVE RADAR, BUILDING &amp; RESEARCH TELEMETRY</text>
  </g>

  <g transform="translate(760, 26)" font-family="'SF Mono', 'Fira Code', monospace" font-size="9" fill="#475569">
    <text x="0" y="8">SYS: <tspan fill="#00ff88">ONLINE</tspan></text>
    <circle cx="95" cy="5" r="3.5" fill="#00F2FE" opacity="0.8" />
    <circle cx="108" cy="5" r="2" fill="#64748b" />
    <circle cx="118" cy="5" r="2" fill="#64748b" />
  </g>

  <line x1="5" y1="65" x2="350" y2="65" stroke="#00F2FE" stroke-width="1.5" />
</svg>